<svg width="434" height="220" viewBox="0 0 434 220" fill="none" xmlns="http://www.w3.org/2000/svg">
<g clip-path="url(#clip0)">
<rect width="434" height="220" fill="#E9B09E"/>
<g style="mix-blend-mode:luminosity">
<path d="M310 90V-57H295V90H310Z" fill="#EC7160"/>
</g>
<g style="mix-blend-mode:luminosity">
<path d="M301 95V-1H295V95H301Z" fill="#844C48" fill-opacity="0.5"/>
</g>
<path opacity="0.5" d="M370 446L341 134H266L230 446H370Z" fill="#FFFEFE" fill-opacity="0.5"/>
<g style="mix-blend-mode:hard-light">
<path d="M295.011 147H309.511C309.511 153 305.012 154.167 302.512 154C296.512 154.4 294.844 149.5 295.011 147Z" fill="#AB6651"/>
</g>
<path d="M350.5 141.5C350.1 99.5003 319.667 89.667 304.5 90.0003C261.3 90.0003 253.167 124.334 254.5 141.5H350.5Z" fill="#6D544D"/>
<path d="M328 141C327.682 99.4142 310.04 90.6698 298 90.9998C263.707 90.9998 254.046 124.003 255.104 141L328 141Z" fill="#BC7862" fill-opacity="0.5"/>
<circle cx="119" cy="17" r="48.5" fill="#E1B6A8" stroke="#9B7164" stroke-width="3"/>
<path d="M119 15.5L86.5 42.5" stroke="#A5796B"/>
<path d="M119 -16V15.5L143 29" stroke="#6C4E44" stroke-width="2"/>
<rect x="101.742" y="151" width="94" height="119" rx="2" transform="rotate(12 101.742 151)" fill="#EDD7D7"/>
<path d="M98.3496 181.39C104.68 178.33 117.081 174.069 116.046 181.505C115.01 188.942 124.092 186.406 128.762 184.208C131.77 181.81 138.181 178.373 139.751 183.81C141.322 189.248 148.231 187.739 151.489 186.305" stroke="black"/>
<path d="M93.3598 204.865C99.7193 201.812 112.18 197.563 111.148 205C110.115 212.437 119.241 209.911 123.933 207.718C126.954 205.322 133.394 201.891 134.979 207.332C136.563 212.773 151.051 212.875 154.324 211.444" stroke="black"/>
<path d="M86.5032 227.503C92.9095 224.589 106.346 220.389 105.366 227.612C104.387 234.835 112.92 230.024 117.647 227.932C120.683 225.629 126.973 224.96 128.623 230.264C130.273 235.569 137.284 234.169 140.582 232.806" stroke="black"/>
<path d="M159.174 193.44L163.187 199.842L184.493 184.947" stroke="#935B6C" stroke-width="2"/>
<path d="M114 158H101V141L104.488 143.638L107.976 141L111.78 143.638L114 141V158Z" fill="#FAF6F6" fill-opacity="0.5"/>
</g>
<defs>
<clipPath id="clip0">
<rect width="434" height="220" fill="white"/>
</clipPath>
</defs>
</svg>
