<svg width="432" height="220" viewBox="0 0 432 220" fill="none" xmlns="http://www.w3.org/2000/svg">
<g clip-path="url(#clip0)">
<rect width="432" height="220" fill="#929BCB"/>
<rect x="320" y="117.174" width="34.5" height="58" rx="17.25" transform="rotate(-12 320 117.174)" fill="#DDDEE0"/>
<path d="M322.454 134.498L326.664 153.899C327.427 157.417 328.924 160.972 332.015 162.816C337.21 165.915 340.347 162.416 341.929 158.33C342.913 155.792 342.659 152.991 341.997 150.351L336.576 128.719C336.292 127.585 335.931 126.459 335.362 125.438C333.96 122.925 332.334 121.443 330.654 120.676C324.14 117.705 320.936 127.501 322.454 134.498Z" fill="#C4C4C4" fill-opacity="0.5"/>
<rect width="179.534" height="66.9335" transform="matrix(0.985941 -0.167097 0.18044 0.983586 120 196)" fill="#C6CFCE"/>
<rect width="164.325" height="53.8521" transform="matrix(0.985794 -0.167956 0.179521 0.983754 129.77 201.203)" fill="#DEE0DF"/>
<ellipse cx="0.5" cy="124.5" rx="42.5" ry="41.5" fill="#ABD7DD"/>
<ellipse cy="124" rx="34" ry="33" fill="#84B9C2"/>
<rect x="16.8047" y="134" width="14.4204" height="11.0356" rx="3" transform="rotate(45 16.8047 134)" fill="white"/>
<path d="M25 124C25 137.218 13.8444 148 0 148C-13.8444 148 -25 137.218 -25 124C-25 110.782 -13.8444 100 0 100C13.8444 100 25 110.782 25 124Z" fill="black" stroke="white" stroke-width="2"/>
<path d="M-22 135.201C-13.1927 143.702 8.13762 153.563 23 125C17.2202 135.201 0.128439 151.523 -22 135.201Z" fill="#231E1E" fill-opacity="0.5"/>
<path d="M-26 126.595C-26 114 -0.5 90.5002 18.5 115.821C14.5 128.5 -9 142.5 -26 126.595Z" fill="#463C3D" fill-opacity="0.5"/>
<rect x="182.797" y="48" width="64.7803" height="29" rx="10" fill="#DDDEE0"/>
<g filter="url(#filter0_d)">
<path d="M104.796 53.546H326.161L350 0H83L104.796 53.546Z" fill="#393E42"/>
</g>
<path d="M113.65 46.4655H320.031L341.826 0H93.8979L113.65 46.4655Z" fill="#C6CBD7"/>
<rect x="182.797" y="50" width="64.7803" height="13" rx="6.5" fill="black" fill-opacity="0.2"/>
</g>
<defs>
<filter id="filter0_d" x="79" y="-3" width="275" height="61.546" filterUnits="userSpaceOnUse" color-interpolation-filters="sRGB">
<feFlood flood-opacity="0" result="BackgroundImageFix"/>
<feColorMatrix in="SourceAlpha" type="matrix" values="0 0 0 0 0 0 0 0 0 0 0 0 0 0 0 0 0 0 127 0"/>
<feOffset dy="1"/>
<feGaussianBlur stdDeviation="2"/>
<feColorMatrix type="matrix" values="0 0 0 0 0 0 0 0 0 0 0 0 0 0 0 0 0 0 0.25 0"/>
<feBlend mode="normal" in2="BackgroundImageFix" result="effect1_dropShadow"/>
<feBlend mode="normal" in="SourceGraphic" in2="effect1_dropShadow" result="shape"/>
</filter>
<clipPath id="clip0">
<rect width="432" height="220" fill="white"/>
</clipPath>
</defs>
</svg>
