<svg width="538" height="220" viewBox="0 0 538 220" fill="none" xmlns="http://www.w3.org/2000/svg">
<g clip-path="url(#clip0)">
<rect width="538" height="220" fill="#ABD7DD"/>
<g style="mix-blend-mode:hard-light">
<path d="M390.602 40.0009L412.135 162.117L321.532 178.093L390.602 40.0009Z" fill="#354C50"/>
</g>
<g style="mix-blend-mode:luminosity">
<path d="M411.532 163.093L502.135 147.117L390 40.9766L411.532 163.093Z" fill="#A1C5C2"/>
</g>
<path d="M286.602 81.0009L308.135 203.117L217.532 219.093L286.602 81.0009Z" fill="#3F7681"/>
<g style="mix-blend-mode:luminosity">
<path d="M307.532 203.093L398.135 187.117L286 80.9766L307.532 203.093Z" fill="#A1C5C2"/>
</g>
<path d="M-2 155.17L493 150C406 162.408 135 202.734 -2 189.292V155.17Z" fill="#5D9CA8" fill-opacity="0.5"/>
<path d="M-5 185C31.4175 209 413.507 161.667 600 135V220H-5V185Z" fill="#275D65"/>
</g>
<defs>
<clipPath id="clip0">
<rect width="538" height="220" fill="white"/>
</clipPath>
</defs>
</svg>
