<svg width="250" height="220" viewBox="0 0 250 220" fill="none" xmlns="http://www.w3.org/2000/svg">
<g clip-path="url(#clip0)">
<rect width="250" height="220" fill="#556067"/>
<circle cx="125" cy="125" r="110" fill="#D0D9DF"/>
<path d="M184.072 256H327L326.099 194.776L242.925 190.15L197.584 187.429L160.651 181.986H146.839V176H121.917L118.614 178.721C114.29 178.721 112.008 181.442 111.408 182.803H105.102L103 187.429L106.003 193.959L124.019 207.02V211.374H117.413L121.016 218.993L152.244 240.762L179.869 246.204L184.072 256Z" fill="#222222"/>
<path d="M112.809 67.6823V61.2729L113.254 60.4183L113.698 59.5637L114.142 59.1365L114.586 58.7092H115.475V57.8546L115.919 57.4273H116.807V57H118.584L119.028 57.4273V57.8546H119.472V58.2819L119.917 58.7092L120.361 59.1365V59.5637V59.991H121.249V61.2729H121.694V62.1275H122.138V63.4094H122.582V64.2639H123.026V64.6912H123.47V65.3322V65.9731H123.915V66.8277H124.359V67.6823H127.913V68.1095H128.357V68.5368H128.801V68.9641H129.245V69.3914H129.689V69.8187H129.912L130.356 70.246L130.578 70.6733H131.022V71.5279H131.466V71.9552H131.91V72.8097H132.355V73.6643H132.799V74.9462H133.243V75.8008H133.687V77.2963H134.132V78.7918H134.576V79.86L135.02 80.0737V80.501V80.9283H135.464L135.686 81.3555H135.908H136.353V81.7828H136.797V82.2101H137.685V82.6374H138.574V83.0647H139.018V83.492H139.462V83.9193H139.906V84.3466H140.351V84.9875L140.795 85.2012V85.6285H141.239V86.483H141.683V86.9103H142.127V87.7649H142.572L142.35 88.1922H143.016V88.6195V88.8331V89.0468H143.46L143.238 89.4741H143.904V89.9014H138.574H138.129L137.241 89.4741V90.3286H137.685V90.7559H138.129V91.1832H138.574V91.6105H139.018V92.0378V92.8924H138.574V93.747L140.795 95.4561V95.8834H139.906V95.4561H139.462H139.018V95.8834V96.5244V96.9516V97.1653H139.906V97.5926H140.795V98.0199H141.239V98.4472V98.8745H141.683V99.729H142.127V100.584L142.572 101.225L143.46 101.865V102.293H144.126V102.72H145.681V103.147H144.793V104.002H145.681V104.643V104.857H145.903L146.125 105.07L146.347 105.284L146.792 105.497H147.014L146.792 105.925V106.138H146.125C145.903 106.138 145.903 105.925 145.681 106.138C145.459 106.352 145.237 106.566 145.459 106.566H146.125H147.014H147.236V106.779C147.236 106.993 147.014 106.779 147.014 106.993C146.792 107.42 147.014 107.207 146.57 107.42C146.214 107.591 145.977 107.634 145.903 107.634C145.829 107.634 145.726 107.677 145.903 107.848C146.125 108.061 146.125 108.061 146.347 108.061C146.57 108.061 146.347 108.275 146.57 108.275C146.747 108.275 147.236 108.56 147.458 108.702C147.68 108.916 148.124 108.916 148.346 109.129C148.569 109.343 148.791 109.343 149.235 109.557C149.679 109.77 149.901 109.77 150.345 109.984C150.79 110.198 151.012 110.198 151.678 110.411C152.344 110.625 153.011 110.411 153.233 110.625C153.455 110.839 153.899 110.839 154.565 111.052C155.232 111.266 155.232 111.052 155.898 111.266C156.564 111.48 156.786 111.48 157.231 111.48C157.675 111.48 157.675 111.693 158.119 111.693C158.474 111.693 159.156 111.836 159.452 111.907C159.526 111.978 159.807 112.206 160.34 112.548C161.006 112.975 160.784 112.548 162.339 113.189C163.894 113.83 164.56 113.83 165.227 114.043C165.76 114.214 166.189 114.257 166.337 114.257H166.559V114.684H167.448H169.002V115.111H170.779L171.446 115.539H172.112H173.444V115.752C173.593 115.824 173.933 115.966 174.111 115.966H175.443H176.554C176.732 115.966 176.628 116.108 176.554 116.18C176.406 116.251 176.243 116.393 176.776 116.393C177.309 116.393 177.739 116.536 177.887 116.607H178.553H179.441L179.886 116.393V116.821H180.996H182.107V117.248H183.217C183.337 117.248 183.53 117.313 183.689 117.377C183.736 117.342 183.829 117.41 183.883 117.462C183.835 117.438 183.766 117.407 183.689 117.377C183.672 117.389 183.661 117.416 183.661 117.462C183.661 117.675 183.439 117.675 183.883 117.675H184.55H184.994L185.216 117.889C185.068 117.96 184.861 118.103 185.216 118.103C185.66 118.103 185.882 117.889 186.105 118.103L186.327 118.316H186.549L187.215 118.53H187.659H187.881V118.743C187.881 118.957 188.104 118.957 188.326 119.171C188.548 119.384 188.548 119.384 188.77 119.384C188.992 119.384 189.214 119.598 189.436 119.598C189.614 119.598 189.658 119.74 189.658 119.812C189.658 119.954 189.703 120.239 189.88 120.239H190.325C190.547 120.239 190.547 120.239 190.547 120.453C190.547 120.666 190.102 120.453 190.769 120.666C191.302 120.837 191.435 120.737 191.435 120.666L191.657 121.094L191.879 121.307L192.101 121.521C192.027 121.592 191.924 121.734 192.101 121.734C192.324 121.734 192.546 121.948 192.768 121.948H193.212V122.375C193.212 122.589 193.656 122.375 193.656 122.589C193.656 122.803 193.656 122.803 193.878 123.016C194.1 123.23 193.878 123.23 194.323 123.444C194.767 123.657 194.767 123.871 194.989 123.871C195.211 123.871 194.989 123.657 195.211 123.871C195.433 124.085 195.211 124.298 195.433 124.298C195.655 124.298 195.877 124.298 195.877 124.512C195.877 124.683 196.173 124.868 196.321 124.939C196.247 124.939 196.144 124.982 196.321 125.153C196.544 125.366 196.766 125.153 196.766 125.366C196.766 125.537 196.914 125.865 196.988 126.007C197.062 126.007 197.254 126.05 197.432 126.221L198.098 126.862C198.32 127.076 198.32 127.289 198.543 127.503C198.765 127.717 198.987 127.717 199.209 128.144C199.431 128.571 199.431 128.571 199.653 128.785C199.875 128.998 199.875 129.212 200.319 129.639C200.764 130.067 200.542 129.853 200.986 130.494C201.43 131.135 201.652 131.349 201.874 131.562C202.096 131.776 202.54 131.989 202.54 132.203C202.54 132.374 202.985 132.844 203.207 133.058C203.207 133.129 203.34 133.4 203.873 133.912C204.539 134.553 204.539 134.34 204.984 134.98C205.428 135.621 205.65 135.621 206.316 136.476C206.983 137.331 206.983 137.544 207.427 138.185C207.871 138.826 207.871 138.399 208.537 139.467C209.204 140.535 209.426 140.322 209.87 141.176C210.314 142.031 210.314 142.031 210.981 142.672C211.647 143.313 211.647 143.526 212.535 144.167C213.246 144.68 214.164 145.52 214.534 145.876L216.311 147.586C216.311 147.657 216.4 147.842 216.755 148.013C217.2 148.226 217.2 148.226 217.644 148.654C218.088 149.081 218.088 149.295 218.754 149.722C219.421 150.149 219.865 150.363 220.531 151.004L221.642 152.072C221.716 152.001 221.908 151.901 222.086 152.072C222.308 152.286 222.752 152.713 223.641 153.354C224.529 153.995 225.195 154.422 225.64 154.636C226.084 154.849 226.306 154.636 226.75 155.063C227.194 155.49 227.194 155.277 228.083 155.918L228.083 155.918C228.971 156.559 228.971 156.559 230.082 156.986C231.192 157.413 232.303 157.627 232.747 157.841L232.747 157.841C233.191 158.054 233.636 158.268 234.746 158.695C235.856 159.122 236.301 159.336 237.189 159.763C238.078 160.191 238.966 160.618 239.854 160.618C240.743 160.618 240.743 160.832 241.409 160.832H242.964C243.63 160.832 244.519 161.045 244.741 160.832C244.963 160.618 245.407 160.832 245.629 160.618C245.851 160.404 246.74 160.191 246.74 159.977C246.74 159.763 246.962 159.763 247.184 159.763C247.406 159.763 247.628 159.977 247.85 159.763C248.072 159.55 247.85 159.763 248.294 159.55C248.739 159.336 248.961 159.336 248.517 159.55C248.072 159.763 248.072 159.55 247.628 159.977C247.184 160.404 247.184 160.404 246.74 160.618C246.296 160.832 246.296 161.045 246.296 161.259C246.296 161.472 246.296 161.472 246.74 161.472C247.184 161.472 247.406 161.686 247.628 161.472C248.739 160.832 248.961 160.618 249.183 160.618H249.627C249.849 160.547 250.205 160.49 249.849 160.832C249.405 161.259 249.405 161.259 248.961 161.472C248.517 161.686 248.517 161.472 248.072 161.9C247.628 162.327 247.628 162.113 246.74 162.754C245.851 163.395 245.185 163.823 244.519 164.25C243.852 164.677 242.742 165.532 243.186 165.532C243.63 165.532 244.741 165.318 245.629 164.891C246.518 164.464 247.406 163.609 247.184 164.25C246.962 164.891 246.962 164.677 246.296 165.104C245.629 165.532 245.185 165.532 244.741 165.745C244.297 165.959 243.852 165.959 243.186 166.173C242.52 166.386 241.631 166.386 241.631 166.6C241.631 166.814 243.63 166.814 244.297 166.6C244.783 166.444 245.388 166.402 245.592 166.391C245.604 166.388 245.616 166.386 245.629 166.386C245.689 166.386 245.668 166.386 245.592 166.391C245.4 166.436 245.292 166.838 243.408 167.241C241.409 167.668 241.187 167.668 240.521 167.882C239.854 168.095 240.299 168.095 238.966 168.309C238.3 168.736 239.632 168.736 239.854 168.736H240.521C238.966 169.377 238.966 169.377 237.189 169.591C235.412 169.805 235.412 169.805 234.524 169.805C233.635 169.805 232.525 169.591 231.636 169.164L229.86 168.309C229.415 168.095 228.971 168.309 228.971 168.736C228.305 168.736 226.084 168.095 225.195 167.668C224.307 167.241 224.085 167.027 223.419 166.814C222.752 166.6 222.752 166.386 221.642 165.959C220.531 165.532 220.531 165.318 219.643 164.891C218.754 164.464 218.754 164.677 218.088 164.036C217.422 163.395 217.422 163.609 216.533 162.541C215.645 161.472 215.423 161.686 214.756 160.832C214.09 159.977 214.534 159.977 213.202 159.122C211.869 158.268 211.869 158.481 210.981 157.627L209.426 156.131C208.759 155.49 209.204 156.986 207.649 153.995C205.65 150.577 205.65 150.363 205.206 149.722C204.762 149.081 204.095 148.44 203.873 148.44C203.651 148.44 203.429 148.013 203.207 148.44C202.985 148.867 202.985 149.508 203.207 149.936L203.873 151.218C204.317 152.072 204.317 152.072 204.984 152.927C205.65 153.781 205.428 152.713 205.872 154.209C206.316 155.704 206.761 156.131 206.316 156.772C205.872 157.413 205.65 157.413 205.872 158.268C206.094 159.122 206.094 159.763 206.316 160.618C206.538 161.472 206.76 161.9 207.427 162.541C208.093 163.182 207.871 162.968 208.537 164.036C209.204 165.104 208.759 165.104 209.87 165.959C210.981 166.814 211.647 167.027 213.424 167.668C215.201 168.309 215.645 168.736 215.867 168.736C216.089 168.736 215.867 169.164 216.089 169.377C216.311 169.591 216.089 170.659 216.089 171.514C216.089 172.368 216.311 173.009 216.311 173.65C216.311 174.291 216.533 174.078 216.311 175.359C216.089 176.641 216.533 176.214 216.311 177.71C216.089 179.205 216.089 178.991 215.867 179.846C215.645 180.701 215.423 180.06 215.423 181.555C215.423 183.051 215.867 183.051 215.423 184.119C214.978 185.187 214.756 185.614 214.756 186.896V188.819C214.756 189.887 214.534 189.246 214.534 190.528C214.534 191.81 214.756 191.596 213.424 191.81C212.091 192.024 212.313 191.81 211.425 191.81H207.871C207.427 191.81 206.538 192.237 205.872 191.81C204.317 190.956 203.873 190.956 203.873 190.528C206.538 189.46 206.316 189.46 207.427 189.674C208.315 189.845 209.13 189.745 209.426 189.674C209.648 189.602 210.137 189.204 210.314 188.178C210.536 186.896 210.758 187.964 210.314 185.401C209.87 182.837 209.87 183.264 209.87 182.196C209.87 181.128 210.092 181.341 209.87 180.701C209.648 180.06 209.87 179.419 209.87 178.991C209.87 178.564 209.87 178.137 209.648 177.496C209.426 176.855 209.648 177.069 209.426 176.214C208.093 173.437 208.759 173.223 207.649 172.796C206.538 172.368 206.983 172.582 206.316 172.368C205.65 172.155 205.206 171.941 204.539 171.941C203.873 171.941 204.095 171.514 203.207 171.514C202.318 171.514 202.096 171.087 201.652 170.873C201.208 170.659 200.986 170.232 200.319 170.018C199.653 169.805 199.875 170.018 198.32 169.377C197.077 168.865 196.025 168.736 195.655 168.736L194.767 168.309C194.545 168.665 194.234 169.463 194.767 169.805C195.211 171.3 195.211 171.727 194.767 172.368C194.323 173.009 194.767 173.65 193.878 174.291C192.99 174.932 192.99 175.359 192.768 176.214C192.546 177.069 192.546 177.282 192.101 178.137C191.657 178.991 190.769 179.846 190.769 180.06C190.769 180.273 190.547 180.701 190.547 180.914C190.547 181.128 190.325 181.982 190.102 182.41C189.88 182.837 189.88 183.692 189.658 184.119C189.436 184.546 189.436 184.973 189.214 185.401C188.992 185.828 188.992 186.042 188.104 186.896C187.215 187.751 186.993 188.819 186.327 188.819C185.794 188.819 185.66 189.246 185.66 189.46C185.142 189.46 183.883 189.503 182.995 189.674C181.885 189.887 181.885 189.674 180.996 189.887C180.108 190.101 180.108 190.101 179.441 189.887C178.775 189.674 178.775 189.46 178.331 189.46H176.332C175.621 189.46 174.999 189.033 174.777 188.819C174.629 188.89 174.377 188.947 174.555 188.605C174.777 188.178 174.555 187.537 174.999 187.537C175.443 187.537 174.999 187.751 175.666 187.324C176.332 186.896 175.888 187.11 176.998 187.324C178.109 187.537 177.22 187.537 178.553 187.537C179.886 187.537 179.663 188.605 180.33 187.324C180.996 186.042 180.996 186.683 181.662 185.401C182.329 184.119 181.885 183.692 182.773 182.623C183.661 181.555 184.106 181.341 184.328 180.701C184.55 180.06 184.328 179.846 184.994 178.991C185.66 178.137 185.66 178.137 186.105 176.855C186.549 175.573 186.327 175.359 186.549 174.718C186.771 174.078 186.993 174.505 186.771 173.437C186.549 172.368 186.549 173.009 186.327 171.941C186.149 171.087 186.105 170.303 186.105 170.018C185.66 169.662 184.816 168.907 184.994 168.736C185.216 168.523 185.66 168.523 184.994 167.668C184.328 166.814 184.328 165.532 184.106 165.104C183.883 164.677 183.883 164.25 182.995 163.395C182.107 162.541 182.107 162.754 181.885 162.113C181.662 161.472 181.662 161.045 181.218 160.618C180.774 160.191 181.218 160.404 180.33 159.977C179.619 159.635 178.997 159.265 178.775 159.122C178.701 159.051 178.42 158.866 177.887 158.695C176.332 157.627 176.332 158.268 175.666 156.772C174.999 155.277 174.999 156.131 174.777 154.849C174.555 153.568 174.777 153.995 174.111 152.499C173.444 151.004 173.889 151.004 173.222 150.149C172.556 149.295 172.556 148.44 172.112 148.013C171.668 147.586 172.556 148.013 171.223 147.586C169.891 147.158 169.669 146.304 169.447 147.158C169.224 148.013 169.002 148.013 168.558 147.586C168.114 147.158 167.67 146.945 167.448 146.731C167.225 146.517 167.448 146.517 166.781 146.517C166.115 146.517 165.893 146.731 165.671 146.731C165.449 146.731 165.004 145.449 165.004 146.731C163.938 147.415 162.635 147.016 162.117 146.731C162.191 146.802 162.25 146.902 161.895 146.731C160.34 146.517 160.118 146.09 159.23 146.304C158.341 146.517 158.563 146.09 157.675 146.304C155.898 147.158 156.564 146.731 154.565 147.158C152.566 147.586 151.234 147.586 151.012 147.586C150.79 147.586 150.123 148.013 149.679 148.013C149.324 148.013 148.643 147.728 148.346 147.586C148.346 147.728 148.169 147.927 147.458 147.586C146.57 147.158 145.903 146.731 145.459 146.731C145.015 146.731 145.237 146.731 144.571 146.517C143.904 146.304 144.348 146.304 143.46 146.304C142.572 146.304 143.238 146.731 141.239 146.09C139.24 145.449 139.462 145.663 138.574 145.449C137.685 145.235 137.463 143.954 137.241 145.022C137.019 146.09 137.019 146.517 137.241 147.158C137.463 147.799 137.685 148.226 137.907 149.081C138.129 149.936 137.907 149.722 137.907 150.79C137.907 151.858 138.352 152.713 138.129 153.781C137.907 154.849 138.129 155.063 138.129 155.918V158.268V162.541C138.129 163.823 137.907 163.823 137.907 164.891V167.241V170.018V171.941C137.907 172.582 137.907 172.796 138.129 173.009C138.352 173.223 139.462 174.078 139.462 174.718V177.069C139.462 178.137 139.018 178.35 139.462 179.205C139.906 180.06 140.573 180.273 140.128 181.128C139.684 181.982 139.018 182.41 138.574 182.623C138.129 182.837 137.463 183.478 137.241 183.478H135.686C132.133 183.478 132.577 183.692 131.244 183.478C129.912 183.264 129.912 183.051 129.689 182.837C129.467 182.623 128.816 181.518 129.467 181.769C130.578 182.196 130.8 180.487 131.91 180.273C132.577 179.846 133.243 180.06 133.243 179.632V177.069C133.243 175.573 133.021 175.573 133.021 174.505C133.021 173.437 133.021 171.941 132.799 171.727C132.577 171.514 132.355 170.873 132.355 170.446C132.355 170.018 133.021 169.591 132.355 168.309C131.688 167.027 132.133 166.814 131.688 166.173C131.244 165.532 131.466 164.891 131.244 164.464C131.022 164.036 131.466 164.036 130.578 163.823C129.689 163.609 129.467 164.891 129.467 165.318V167.241C129.467 168.95 129.245 170.232 129.467 171.3C129.689 172.368 129.912 172.582 129.689 173.864C129.467 175.146 129.467 175.146 129.467 176.428C129.467 177.71 129.689 178.35 129.689 178.778C129.689 179.12 127.764 180.558 127.69 181.769C127.394 181.769 128.534 182.837 128.357 182.837H127.69H126.136H122.138H119.028C117.474 182.837 117.029 183.478 116.807 182.623C116.585 181.769 116.807 181.555 116.807 181.128C116.807 180.701 114.586 180.487 116.585 180.06C118.584 179.632 118.584 179.632 120.139 179.632C121.694 179.632 122.36 180.06 122.804 179.632C123.248 179.205 123.47 179.205 123.47 178.778V177.069V174.718V171.3C123.47 170.018 123.693 170.232 123.47 169.377C123.248 168.523 122.804 168.95 123.026 167.668C123.248 166.386 122.582 165.745 123.026 164.891C123.382 164.207 123.026 163.466 122.804 163.182V162.327C122.804 161.9 123.248 161.472 122.804 161.259C122.36 161.045 122.804 161.686 122.138 160.618C121.471 159.55 121.249 159.122 121.249 158.695V156.772V154.209V151.645C121.249 150.79 121.694 151.004 121.249 149.508C120.805 148.013 121.027 148.013 120.583 146.517C120.139 145.022 120.361 145.022 120.139 143.526C119.917 142.031 119.695 141.817 119.695 140.963V139.467C119.695 138.612 119.695 138.185 119.25 137.544C118.806 136.903 118.584 136.903 117.918 136.049C117.251 135.194 117.696 135.194 116.807 134.126C115.919 133.058 115.697 131.989 115.475 132.417C115.252 132.844 114.586 134.34 114.364 134.553C113.476 133.699 114.364 134.126 114.364 133.485V131.776C114.364 131.135 114.808 131.562 114.586 130.494C114.364 129.426 115.475 129.212 114.586 128.998C113.698 128.785 114.142 129.853 113.254 128.571C112.365 127.289 112.365 127.289 112.143 126.221C111.965 125.366 111.773 124.583 111.699 124.298C111.551 124.654 111.255 125.537 111.255 126.221C111.032 126.862 110.366 125.366 109.922 123.871C109.478 122.375 109.256 121.734 109.256 121.307V119.384V118.743C109.256 119.384 109.478 117.034 109.256 116.393C109.256 115.752 109.478 115.111 109.478 114.471C109.478 113.83 109.7 113.616 109.7 112.975V111.48C109.7 110.625 109.478 110.411 109.478 109.984V108.702C109.478 108.36 109.33 108.275 109.256 108.275V107.634C109.256 107.42 109.033 106.993 109.256 106.138C109.478 105.284 109.478 106.138 109.478 104.002V100.584V98.4472C109.478 98.0199 110.144 97.1653 109.478 97.5926C108.811 98.0199 108.145 98.8744 108.145 98.4472C108.145 98.0199 108.589 96.9516 108.811 96.5244C109.033 96.0971 109.478 96.0971 109.478 95.4561C109.478 94.8152 109.7 93.3197 109.7 92.8924V91.1832C109.7 89.9014 109.922 89.4741 109.7 88.6195C109.522 87.9358 109.478 87.1952 109.478 86.9103C109.33 86.3406 109.167 85.0302 109.7 84.3466C110.366 83.492 110.366 83.492 110.588 82.6374C110.81 81.7828 111.032 81.3555 111.032 80.9283V79.4327V77.2963C111.032 76.2281 110.588 76.2281 110.588 75.5871C110.588 74.9462 110.366 74.7325 109.7 73.6643C109.033 72.5961 109.033 72.1688 108.811 71.5279C108.589 70.8869 108.589 71.5279 108.367 70.4596C108.145 69.3914 108.145 69.8187 108.145 68.9641V67.6823C108.145 67.0413 107.701 67.4686 108.367 66.8277C109.033 66.1867 108.811 66.614 109.478 65.9731C110.145 65.3322 110.59 65.5458 110.811 65.1185C111.032 64.6912 111.477 63.4094 111.477 64.2639V65.9731C111.477 66.4004 110.589 65.5458 111.477 66.8277C112.188 67.8532 112.661 67.8247 112.809 67.6823Z" fill="#313535"/>
</g>
<defs>
<clipPath id="clip0">
<rect width="250" height="220" fill="white"/>
</clipPath>
</defs>
</svg>
