<svg width="260" height="220" viewBox="0 0 260 220" fill="none" xmlns="http://www.w3.org/2000/svg">
<g clip-path="url(#clip0)">
<rect width="260" height="220" fill="#FCD8D8"/>
<path d="M54.9755 33.9681L42.3405 37.833L45.685 23.7783L39.3675 31.1567L38.2527 29.3999L36.394 36.7783L34.9076 33.9681V40.6438L21.1577 27.9945L20.4145 29.3999L33.7927 42.0492L27.4752 40.6438L29.7049 43.1033L20.4145 44.5081L21.1577 45.5627L14.097 52.2384C18.4325 50.4816 27.4009 47.3194 28.5901 48.7243C29.7792 50.1292 26.8558 57.2736 25.2455 60.6702L29.7049 59.2648L28.5901 65.2378L30.8198 64.5351L29.7049 66.9945H31.9346L32.3062 69.454L33.7927 75.7783L34.9076 68.7513L36.394 67.6972L35.6508 64.5351H37.5089L36.394 59.2648H39.3675C35.5027 53.6432 37.0139 52.2382 38.2527 52.2384C40.631 54.7686 42.4643 60.7877 43.0837 63.481L45.685 58.2108C47.4688 57.6486 48.658 62.6612 49.0296 65.2378L51.2593 62.427L53.489 67.6972L54.9755 64.1837L57.2052 69.454L58.32 67.6972L64.6375 71.2108L60.5497 66.2918L61.6646 64.1837L57.2052 62.427L59.4349 60.6702L54.9755 59.2648L58.32 56.4546C54.7525 56.7357 52.1264 53.7609 51.2593 52.2384L57.2052 50.4816C53.3651 50.1303 45.3877 48.9357 44.1985 46.9681C43.0094 45.0006 44.694 44.5087 45.685 44.5087H49.0296L52.7458 46.9681V44.5087L58.32 45.5627L58.6916 43.806L61.6646 44.86L62.7794 43.1033H64.6375L69.097 42.0492L64.6375 40.6438H61.6646V39.5897H59.4349V37.833H53.489L54.9755 33.9681Z" fill="#A26957"/>
<path d="M269.636 108.567C252.497 115.094 242.129 131.231 239.087 138.483L180.37 87.199L223.614 80.5942L260.511 90.3071L269.636 108.567Z" fill="#935B6C"/>
<path d="M239.88 138.872C224.646 135.142 171.641 163.996 147.043 178.889L109.353 102.74L176.502 80.9995C195.545 86.2833 227.317 124.108 239.88 138.872Z" fill="#A36578"/>
<path d="M147 178.501C116.531 176.636 65.1823 198.056 43.4939 208.417C33.9722 199.404 41.1802 145.107 46.999 120.501C51.4425 115.528 90.8824 106.643 109 102.499C112.174 100.013 135.759 152.47 147 178.501Z" fill="#9C6073"/>
<path d="M16.5163 134.209C-15.5402 144.777 -68.5181 182.644 -91 200.257C-62.8315 114.784 6.99456 86.422 11.3587 84.868C13.8322 83.9872 22.0273 75.1242 29.0879 67.038C31.2766 63.0615 33.815 59.9374 36.75 58.0604C34.7066 60.5145 31.9933 63.7105 29.0879 67.038C19.6786 84.1325 16.7309 116.979 16.5163 134.209Z" fill="#DEA1AD"/>
<path d="M172.753 50.0744C172.498 50.0485 172.247 50.0237 172 50C172.227 50 172.478 50.0252 172.753 50.0744C192.036 52.0333 234.411 60.4266 255.712 79.1386L270.391 91.9596C255.447 88.463 224.37 81.7028 219.609 82.6353C206.962 72.1272 180.545 51.4689 172.753 50.0744Z" fill="#F4A9B8"/>
<path d="M172.753 50.0744C172.498 50.0485 172.247 50.0237 172 50C172.227 50 172.478 50.0252 172.753 50.0744C192.036 52.0333 234.411 60.4266 255.712 79.1386L270.391 91.9596C255.447 88.463 224.37 81.7028 219.609 82.6353C206.962 72.1272 180.545 51.4689 172.753 50.0744Z" fill="url(#paint0_linear)" fill-opacity="0.2"/>
<path d="M66.1082 47.1818L127.999 236H132.761L69.6788 47.1818C65.8701 40.0331 65.7114 44.2032 66.1082 47.1818Z" fill="#633D48"/>
<path d="M66.1082 47.1818L127.999 236H132.761L69.6788 47.1818C65.8701 40.0331 65.7114 44.2032 66.1082 47.1818Z" fill="url(#paint1_linear)" fill-opacity="0.2"/>
<path d="M105.386 42.132C92.6901 50.8347 53.8096 56.1185 35.9564 57.6726C18.1825 76.6327 15.3259 117.115 16.1194 134.986C51.0325 112.919 168.203 90.3076 222.424 81.7605C163.706 29.6995 121.255 31.2536 105.386 42.132Z" fill="#E7A2B0"/>
<path d="M105.386 42.132C92.6901 50.8347 53.8096 56.1185 35.9564 57.6726C18.1825 76.6327 15.3259 117.115 16.1194 134.986C51.0325 112.919 168.203 90.3076 222.424 81.7605C163.706 29.6995 121.255 31.2536 105.386 42.132Z" fill="url(#paint2_linear)" fill-opacity="0.2"/>
<path d="M43.4943 208.804C12.39 202.588 -31.6216 213.726 -49.7394 220.071C-56.722 202.044 -35.1923 168.787 -23.5546 154.412C-15.6198 147.574 27.9715 128.269 48.9987 120.499C44.2378 124.54 43.4943 181.738 43.4943 208.804Z" fill="#935B6C"/>
<path d="M223.269 89.3069L226.24 76.4322L236.739 86.3561L233.508 77.1958L235.587 77.1086L230.126 71.8098L233.303 71.9276L227.522 68.5898L245.352 63.0067L244.506 61.6603L226.862 66.9216L231.238 62.1532L227.993 62.8544L231.422 54.1063L230.137 54.2226L227.886 44.77C227.24 49.403 225.494 58.751 223.683 59.0784C221.872 59.4058 217.146 53.3019 215.01 50.209L213.997 54.7736L209.382 50.8217L208.876 53.104L207.303 50.9088L206.188 52.8398L203.872 51.9319L197.652 50.057L203.18 54.536L203.35 56.3504L206.46 57.2878L205.531 58.897L210.653 60.5666L209.166 63.1417C215.967 62.6055 216.428 64.6167 215.808 65.6894C212.428 66.484 206.299 65.0622 203.656 64.2519L206.92 69.1398C206.515 70.9657 201.579 69.4893 199.162 68.5228L200.481 71.8592L194.802 71.155L197.102 74.1991L191.423 73.495L192.387 75.3388L186.185 79.0532L192.489 77.9725L193.757 79.9921L197.508 77.0085L197.915 79.8179L201.362 76.6586L202.123 80.9602C203.664 77.73 207.553 76.9432 209.305 76.9535L207.853 82.9812C210.078 79.8312 215.101 73.5199 217.4 73.4738C219.698 73.4278 219.282 75.1327 218.786 75.9909L217.114 78.8874L213.126 80.8759L215.256 82.1057L211.556 86.4061L212.892 87.6063L210.492 89.6539L211.456 91.4978L210.527 93.107L209.21 97.496L212.657 94.3367L214.144 91.762L215.056 92.2891L216.171 90.3581L217.693 91.2365L220.666 86.0872L223.269 89.3069Z" fill="#D97854"/>
</g>
<defs>
<linearGradient id="paint0_linear" x1="221.196" y1="50" x2="221.196" y2="91.9596" gradientUnits="userSpaceOnUse">
<stop stop-color="white"/>
<stop offset="1" stop-color="white" stop-opacity="0"/>
</linearGradient>
<linearGradient id="paint1_linear" x1="99.3604" y1="43.2346" x2="99.3604" y2="236" gradientUnits="userSpaceOnUse">
<stop stop-color="white"/>
<stop offset="1" stop-color="white" stop-opacity="0"/>
</linearGradient>
<linearGradient id="paint2_linear" x1="119.213" y1="36" x2="119.213" y2="134.986" gradientUnits="userSpaceOnUse">
<stop stop-color="white"/>
<stop offset="1" stop-color="white" stop-opacity="0"/>
</linearGradient>
<clipPath id="clip0">
<rect width="260" height="220" fill="white"/>
</clipPath>
</defs>
</svg>
