<svg width="205" height="64" viewBox="0 0 205 64" fill="none" xmlns="http://www.w3.org/2000/svg">
<rect x="8.5332" y="8.53333" width="4.26667" height="12.8" fill="white"/>
<rect x="17.0667" y="17.0667" width="4.26667" height="12.8" fill="white"/>
<rect x="8.5332" y="8.53333" width="12.8" height="4.26667" fill="white"/>
<rect x="8.5332" y="17.0667" width="12.8" height="4.26667" fill="white"/>
<rect x="8.5332" y="25.6" width="12.8" height="4.26667" fill="white"/>
<rect x="59.7334" y="34.1334" width="4.26667" height="12.8" fill="white"/>
<rect x="68.2666" y="42.6667" width="4.26667" height="12.8" fill="white"/>
<rect x="59.7334" y="34.1334" width="12.8" height="4.26667" fill="white"/>
<rect x="59.7334" y="42.6667" width="12.8" height="4.26667" fill="white"/>
<rect x="59.7334" y="51.2" width="12.8" height="4.26667" fill="white"/>
<rect x="25.6001" y="8.53333" width="4.26667" height="12.8" fill="white"/>
<rect x="25.6001" y="25.6" width="12.8" height="4.26667" fill="white"/>
<rect x="25.6001" y="17.0667" width="12.8" height="4.26667" fill="white"/>
<rect x="34.1333" y="8.53333" width="4.26667" height="21.3333" fill="white"/>
<rect x="59.7334" y="8.53333" width="12.8" height="4.26667" fill="white"/>
<rect x="59.7334" y="25.6" width="12.8" height="4.26667" fill="white"/>
<rect x="59.7334" y="17.0667" width="8.53333" height="4.26667" fill="white"/>
<rect x="59.7334" y="8.53333" width="4.26667" height="21.3333" fill="white"/>
<rect x="42.6667" y="8.53333" width="8.53333" height="4.26667" fill="white"/>
<rect x="42.6667" y="25.6" width="8.53333" height="4.26667" fill="white"/>
<rect x="42.6667" y="8.53333" width="4.26667" height="21.3333" fill="white"/>
<rect x="51.2" y="12.8" width="4.26667" height="12.8" fill="white"/>
<rect x="76.8" width="4.26667" height="29.8667" fill="white"/>
<rect x="42.6667" width="38.4" height="4.26667" fill="white"/>
<rect y="34.1334" width="4.26667" height="29.8667" fill="white"/>
<rect y="59.7333" width="38.4" height="4.26667" fill="white"/>
<rect x="25.6001" y="51.2" width="12.8" height="4.26667" fill="white"/>
<rect x="25.6001" y="34.1334" width="12.8" height="4.26667" fill="white"/>
<rect x="34.1333" y="34.1334" width="4.26667" height="21.3333" fill="white"/>
<rect x="25.6001" y="34.1334" width="4.26667" height="21.3333" fill="white"/>
<rect x="42.6667" y="42.6667" width="12.8" height="4.26667" fill="white"/>
<rect x="42.6667" y="51.2" width="12.8" height="4.26667" fill="white"/>
<rect x="42.6667" y="34.1334" width="12.8" height="4.26667" fill="white"/>
<rect x="42.6667" y="42.6667" width="4.26667" height="12.8" fill="white"/>
<rect x="51.2" y="34.1334" width="4.26667" height="12.8" fill="white"/>
<rect x="8.5332" y="34.1333" width="12.8" height="4.26667" fill="white"/>
<rect x="8.5332" y="42.6666" width="12.8" height="4.26667" fill="white"/>
<rect x="8.5332" y="51.2" width="12.8" height="4.26667" fill="white"/>
<rect x="17.0667" y="34.1333" width="4.26667" height="12.8" fill="white"/>
<rect x="8.5332" y="42.6666" width="4.26667" height="12.8" fill="white"/>
<rect x="140.8" y="8.53333" width="4.26667" height="12.8" fill="white"/>
<rect x="149.333" y="17.0667" width="4.26667" height="12.8" fill="white"/>
<rect x="140.8" y="8.53333" width="12.8" height="4.26667" fill="white"/>
<rect x="140.8" y="17.0667" width="12.8" height="4.26667" fill="white"/>
<rect x="140.8" y="25.6" width="12.8" height="4.26667" fill="white"/>
<rect x="157.867" y="8.53333" width="4.26667" height="12.8" fill="white"/>
<rect x="166.4" y="17.0667" width="4.26667" height="12.8" fill="white"/>
<rect x="157.867" y="8.53333" width="12.8" height="4.26667" fill="white"/>
<rect x="157.867" y="17.0667" width="12.8" height="4.26667" fill="white"/>
<rect x="157.867" y="25.6" width="12.8" height="4.26667" fill="white"/>
<rect x="123.733" y="8.53333" width="4.26667" height="21.3333" fill="white"/>
<rect x="132.267" y="8.53333" width="4.26667" height="21.3333" fill="white"/>
<rect x="123.733" y="8.53333" width="12.8" height="4.26667" fill="white"/>
<rect x="123.733" y="17.0667" width="12.8" height="4.26667" fill="white"/>
<rect x="89.6001" y="8.53333" width="4.26667" height="21.3333" fill="white"/>
<rect x="89.6001" y="8.53333" width="12.8" height="4.26667" fill="white"/>
<rect x="89.6001" y="25.6" width="12.8" height="4.26667" fill="white"/>
<rect x="106.667" y="8.53333" width="4.26667" height="21.3333" fill="white"/>
<rect x="106.667" y="25.6" width="12.8" height="4.26667" fill="white"/>
<rect x="192" y="34.1334" width="4.26667" height="21.3333" fill="white"/>
<rect x="192" y="42.6667" width="8.53333" height="4.26667" fill="white"/>
<rect x="192" y="51.2" width="12.8" height="4.26667" fill="white"/>
<rect x="192" y="34.1334" width="12.8" height="4.26667" fill="white"/>
<rect x="174.933" y="34.1334" width="4.26667" height="21.3333" fill="white"/>
<rect x="174.933" y="51.2" width="12.8" height="4.26667" fill="white"/>
<rect x="162.133" y="34.1334" width="4.26667" height="21.3333" fill="white"/>
<rect x="157.867" y="51.2" width="12.8" height="4.26667" fill="white"/>
<rect x="157.867" y="34.1334" width="12.8" height="4.26667" fill="white"/>
<rect x="140.8" y="34.1334" width="4.26667" height="21.3333" fill="white"/>
<rect x="140.8" y="34.1334" width="12.8" height="4.26667" fill="white"/>
<rect x="140.8" y="42.6667" width="8.53333" height="4.26667" fill="white"/>
<rect x="132.267" y="34.1334" width="4.26667" height="21.3333" fill="white"/>
<rect x="123.733" y="34.1334" width="4.26667" height="21.3333" fill="white"/>
<rect x="123.733" y="51.2" width="12.8" height="4.26667" fill="white"/>
<rect x="123.733" y="34.1334" width="12.8" height="4.26667" fill="white"/>
<rect x="106.667" y="34.1334" width="4.26667" height="21.3333" fill="white"/>
<rect x="115.2" y="34.1334" width="4.26667" height="8.53333" fill="white"/>
<rect x="115.2" y="46.9333" width="4.26667" height="8.53333" fill="white"/>
<rect x="106.667" y="42.6667" width="8.53333" height="4.26667" fill="white"/>
<rect x="106.667" y="34.1334" width="12.8" height="4.26667" fill="white"/>
<rect x="98.1333" y="34.1334" width="4.26667" height="12.8" fill="white"/>
<rect x="89.6001" y="34.1334" width="4.26667" height="21.3333" fill="white"/>
<rect x="89.6001" y="34.1334" width="12.8" height="4.26667" fill="white"/>
<rect x="89.6001" y="42.6667" width="12.8" height="4.26667" fill="white"/>
</svg>
